<svg xmlns="http://www.w3.org/2000/svg" viewBox="0 0 800 400">
  <!-- Background -->
  <rect width="800" height="400" fill="#f8f9fa" />
  
  <!-- Title -->
  <text x="400" y="30" font-family="Arial" font-size="20" text-anchor="middle" font-weight="bold">스프링 배치 청크 프로세싱 개념</text>
  
  <!-- Database -->
  <rect x="70" y="110" width="120" height="180" rx="10" ry="10" fill="#b3e0ff" stroke="#0066cc" stroke-width="2" />
  <rect x="70" y="110" width="120" height="40" rx="10" ry="10" fill="#0066cc" stroke="#0066cc" stroke-width="2" />
  <text x="130" y="135" font-family="Arial" font-size="14" text-anchor="middle" fill="white">Database</text>
  <text x="130" y="165" font-family="Arial" font-size="12" text-anchor="middle">1,000만 건</text>
  <text x="130" y="185" font-family="Arial" font-size="12" text-anchor="middle">데이터</text>
  
  <!-- Chunk Processing Flow -->
  <!-- Chunk 1 -->
  <rect x="240" y="80" width="100" height="50" rx="5" ry="5" fill="#ffcc99" stroke="#ff8c00" stroke-width="2" />
  <text x="290" y="112" font-family="Arial" font-size="12" text-anchor="middle">Chunk 1</text>
  
  <!-- Chunk 2 -->
  <rect x="240" y="150" width="100" height="50" rx="5" ry="5" fill="#ffcc99" stroke="#ff8c00" stroke-width="2" />
  <text x="290" y="182" font-family="Arial" font-size="12" text-anchor="middle">Chunk 2</text>
  
  <!-- Chunk ... -->
  <rect x="240" y="220" width="100" height="50" rx="5" ry="5" fill="#ffcc99" stroke="#ff8c00" stroke-width="2" />
  <text x="290" y="252" font-family="Arial" font-size="12" text-anchor="middle">...</text>
  
  <!-- Chunk N -->
  <rect x="240" y="290" width="100" height="50" rx="5" ry="5" fill="#ffcc99" stroke="#ff8c00" stroke-width="2" />
  <text x="290" y="322" font-family="Arial" font-size="12" text-anchor="middle">Chunk 10,000</text>
  
  <!-- Item Reader -->
  <rect x="390" y="150" width="100" height="50" rx="5" ry="5" fill="#c6ecc6" stroke="#28a745" stroke-width="2" />
  <text x="440" y="182" font-family="Arial" font-size="12" text-anchor="middle">ItemReader</text>
  
  <!-- Item Processor -->
  <rect x="520" y="150" width="100" height="50" rx="5" ry="5" fill="#c6ecc6" stroke="#28a745" stroke-width="2" />
  <text x="570" y="182" font-family="Arial" font-size="12" text-anchor="middle">ItemProcessor</text>
  
  <!-- Item Writer -->
  <rect x="650" y="150" width="100" height="50" rx="5" ry="5" fill="#c6ecc6" stroke="#28a745" stroke-width="2" />
  <text x="700" y="182" font-family="Arial" font-size="12" text-anchor="middle">ItemWriter</text>
  
  <!-- Connectors from Database to Chunks -->
  <path d="M 190 150 L 240 105" stroke="#666" stroke-width="2" fill="none" />
  <path d="M 190 175 L 240 175" stroke="#666" stroke-width="2" fill="none" />
  <path d="M 190 200 L 240 245" stroke="#666" stroke-width="2" fill="none" />
  <path d="M 190 225 L 240 315" stroke="#666" stroke-width="2" fill="none" />
  
  <!-- Connector from Chunk 2 to Processing Chain -->
  <path d="M 340 175 L 390 175" stroke="#666" stroke-width="2" fill="none" marker-end="url(#arrowhead)" />
  <path d="M 490 175 L 520 175" stroke="#666" stroke-width="2" fill="none" marker-end="url(#arrowhead)" />
  <path d="M 620 175 L 650 175" stroke="#666" stroke-width="2" fill="none" marker-end="url(#arrowhead)" />
  
  <!-- Legend -->
  <rect x="250" y="350" width="15" height="15" fill="#ffcc99" stroke="#ff8c00" stroke-width="2" />
  <text x="270" y="363" font-family="Arial" font-size="12" text-anchor="start">청크 단위 데이터 (각 1,000건)</text>
  
  <rect x="440" y="350" width="15" height="15" fill="#c6ecc6" stroke="#28a745" stroke-width="2" />
  <text x="460" y="363" font-family="Arial" font-size="12" text-anchor="start">처리 컴포넌트</text>
  
  <!-- Arrowhead marker -->
  <defs>
    <marker id="arrowhead" markerWidth="10" markerHeight="7" refX="9" refY="3.5" orient="auto">
      <polygon points="0 0, 10 3.5, 0 7" fill="#666" />
    </marker>
  </defs>
</svg>
