<svg xmlns="http://www.w3.org/2000/svg" viewBox="0 0 800 500">
  <!-- Background -->
  <rect width="800" height="500" fill="#f8f9fa" />
  
  <!-- Title -->
  <text x="400" y="40" font-family="Arial" font-size="22" text-anchor="middle" font-weight="bold">실제 성능 테스트 결과: JPA Paging vs JDBC Cursor-based 비교</text>
  
  <!-- Chart Area -->
  <rect x="100" y="80" width="630" height="300" fill="#fff" stroke="#ccc" stroke-width="1" />
  
  <!-- Y-axis labels for processing time -->
  <text x="90" y="90" font-family="Arial" font-size="12" text-anchor="end">200분</text>
  <text x="90" y="150" font-family="Arial" font-size="12" text-anchor="end">150분</text>
  <text x="90" y="210" font-family="Arial" font-size="12" text-anchor="end">100분</text>
  <text x="90" y="270" font-family="Arial" font-size="12" text-anchor="end">50분</text>
  <text x="90" y="330" font-family="Arial" font-size="12" text-anchor="end">0분</text>
  
  <!-- X-axis labels -->
  <text x="170" y="350" font-family="Arial" font-size="14" text-anchor="middle">2만 건</text>
  <text x="350" y="350" font-family="Arial" font-size="14" text-anchor="middle">10만 건</text>
  <text x="530" y="350" font-family="Arial" font-size="14" text-anchor="middle">50만 건</text>
  <text x="700" y="350" font-family="Arial" font-size="14" text-anchor="middle">100만 건</text>
  
  <!-- Y-axis lines -->
  <line x1="100" y1="90" x2="730" y2="90" stroke="#eee" stroke-width="1" />
  <line x1="100" y1="150" x2="730" y2="150" stroke="#eee" stroke-width="1" />
  <line x1="100" y1="210" x2="730" y2="210" stroke="#eee" stroke-width="1" />
  <line x1="100" y1="270" x2="730" y2="270" stroke="#eee" stroke-width="1" />
  <line x1="100" y1="330" x2="730" y2="330" stroke="#eee" stroke-width="1" />
  
  <!-- Y-axis -->
  <line x1="100" y1="80" x2="100" y2="330" stroke="#666" stroke-width="2" />
  <!-- X-axis -->
  <line x1="100" y1="330" x2="730" y2="330" stroke="#666" stroke-width="2" />
  
  <!-- Bars for 2만 건 -->
  <!-- JPA Paging 6분 (실제 측정값) -->
  <rect x="140" y="318" width="30" height="12" fill="#5470c6" opacity="0.8" />
  <text x="155" y="313" font-family="Arial" font-size="12" text-anchor="middle">6분</text>
  
  <!-- JDBC Cursor-based 10초 (실제 측정값) -->
  <rect x="180" y="329.5" width="30" height="0.5" fill="#91cc75" opacity="0.8" />
  <text x="195" y="321" font-family="Arial" font-size="12" text-anchor="middle">10초</text>
  
  <!-- 10만 건 -->
  <!-- JDBC Cursor-based 1분 1초 (실제 측정값) -->
  <rect x="360" y="328" width="30" height="2" fill="#91cc75" opacity="0.8" />
  <text x="375" y="321" font-family="Arial" font-size="12" text-anchor="middle">1분 1초</text>
  
  <!-- 50만 건 -->
  <!-- JDBC Cursor-based 4분 32초 (실제 측정값) -->
  <rect x="540" y="321" width="30" height="9" fill="#91cc75" opacity="0.8" />
  <text x="555" y="314" font-family="Arial" font-size="12" text-anchor="middle">4분 32초</text>
  
  <!-- 100만 건 -->
  <!-- JDBC Cursor-based 8분 16초 (실제 측정값) -->
  <rect x="710" y="313" width="30" height="17" fill="#91cc75" opacity="0.8" />
  <text x="725" y="306" font-family="Arial" font-size="12" text-anchor="middle">8분 16초</text>
  
  <!-- Projected values for JPA Paging (too large to show) -->
  <!-- JPA Paging projected values arrow indicators -->
  <!-- 10만 건 (예상 150분) - 실제 막대는 표시할 수 없음 -->
  <rect x="320" y="90" width="30" height="10" fill="#5470c6" opacity="0.8" />
  <text x="335" y="115" font-family="Arial" font-size="12" text-anchor="middle" fill="#5470c6">150분</text>
  <path d="M335 100 L 335 120" stroke="#5470c6" stroke-width="1.5" stroke-dasharray="2,2" />
  <text x="335" y="135" font-family="Arial" font-size="11" text-anchor="middle" fill="#5470c6">(추정)</text>
  
  <!-- 50만 건 (예상 750분) - 차트 범위 초과로 표시 불가 -->
  <rect x="500" y="90" width="30" height="10" fill="#5470c6" opacity="0.8" />
  <text x="515" y="115" font-family="Arial" font-size="12" text-anchor="middle" fill="#5470c6">750분</text>
  <path d="M515 100 L 515 120" stroke="#5470c6" stroke-width="1.5" stroke-dasharray="2,2" />
  <text x="515" y="135" font-family="Arial" font-size="11" text-anchor="middle" fill="#5470c6">(추정)</text>
  
  <!-- 100만 건 (예상 1500분) - 차트 범위 초과로 표시 불가 -->
  <rect x="670" y="90" width="30" height="10" fill="#5470c6" opacity="0.8" />
  <text x="685" y="115" font-family="Arial" font-size="12" text-anchor="middle" fill="#5470c6">1500분</text>
  <path d="M685 100 L 685 120" stroke="#5470c6" stroke-width="1.5" stroke-dasharray="2,2" />
  <text x="685" y="135" font-family="Arial" font-size="11" text-anchor="middle" fill="#5470c6">(추정)</text>
  
  <!-- Legend -->
  <rect x="250" y="390" width="15" height="15" fill="#5470c6" opacity="0.8" />
  <text x="270" y="402" font-family="Arial" font-size="14" text-anchor="start">JPA Paging</text>
  
  <rect x="450" y="390" width="15" height="15" fill="#91cc75" opacity="0.8" />
  <text x="470" y="402" font-family="Arial" font-size="14" text-anchor="start">JDBC Cursor-based</text>
  
  <!-- Annotation for Larger Datasets -->
  <rect x="140" y="425" width="550" height="55" rx="5" ry="5" fill="#fff8f0" stroke="#fa8c16" stroke-width="1" />
  <text x="150" y="445" font-family="Arial" font-size="14" fill="#d4380d">⚠️ 실제 테스트 결과: JPA Paging은 2만건 처리 시 6분 소요 vs JDBC Cursor-based는 10초</text>
  <text x="150" y="470" font-family="Arial" font-size="14" fill="#d4380d">JPA Paging은 더 큰 데이터셋(10만건 이상)에 대해 기하급수적 소요시간으로 인해 테스트 진행 불가</text>
  
  <!-- Trend Lines -->
  <path d="M 155 318 Q 200 180, 335 90" stroke="#5470c6" stroke-width="2" fill="none" stroke-dasharray="5,3" />
  <path d="M 195 329.5 L 375 328 L 555 321 L 725 313" stroke="#91cc75" stroke-width="2" fill="none" stroke-dasharray="5,3" />
  
  <!-- Chart Annotations -->
  <path d="M 250 180 L 280 180 L 300 160" stroke="#5470c6" stroke-width="1.5" fill="none" />
  <text x="305" y="160" font-family="Arial" font-size="12" fill="#5470c6" text-anchor="start">기하급수적 증가</text>
  
  <path d="M 550 320 L 570 320 L 590 300" stroke="#91cc75" stroke-width="1.5" fill="none" />
  <text x="595" y="300" font-family="Arial" font-size="12" fill="#91cc75" text-anchor="start">선형적 증가</text>
</svg>
